#!OML:ASF I:\Actors\actors\Patient Classification 2\Patient 1\Session 1\actor1.ASF
:FULLY-SPECIFIED
:DEGREES
613
root -0.885829 18.5026 6.06655 -7.45294 0.761069 -3.24446
lowerback 6.60213 0.0223392 0.819547
upperback -1.00025 0.13233 0.742259
thorax -4.74178 0.0537516 0.294661
lowerneck -10.4163 -1.83242 1.05794
upperneck 19.865 -2.91835 0.833352
head 7.84249 -1.23374 -0.18734
rclavicle -1.03617e-014 -6.16232e-015
rhumerus -53.6218 -9.5139 -82.6432
rradius 42.186
rwrist 23.4699
rhand -7.28378 -32.1948
rfingers 7.12502
rthumb 18.5979 -61.3258
lclavicle -1.03617e-014 -6.16232e-015
lhumerus -46.1535 13.0209 81.4265
lradius 36.2355
lwrist -19.3385
lhand -6.51924 -19.3059
lfingers 7.12502
lthumb 19.3331 9.75309
rfemur 18.2706 2.79774 19.2368
rtibia -9.54166e-015
rfoot -22.0697 -13.11
rtoes -5.60449
lfemur 3.74606 -4.85183 -10.8959
ltibia 23.0962
lfoot -21.4938 7.21643
ltoes -56.3809
614
root -0.887491 18.5017 6.06509 -7.49027 0.563223 -3.23954
lowerback 6.56029 0.0444267 0.820141
upperback -0.983371 0.160429 0.728572
thorax -4.70044 0.0675764 0.277155
lowerneck -10.334 -1.81131 1.04733
upperneck 19.9737 -2.9016 0.89653
head 7.86496 -1.21982 -0.162941
rclavicle 7.10655e-015 3.57812e-015
rhumerus -53.561 -10.032 -82.3137
rradius 41.9513
rwrist 22.9876
rhand -6.82984 -32.0194
rfingers 7.12502
rthumb 19.0345 -61.108
lclavicle 7.10655e-015 3.57812e-015
lhumerus -46.2068 12.9572 81.4822
lradius 36.3994
lwrist -19.0761
lhand -6.60894 -19.443
lfingers 7.12502
lthumb 19.2469 9.62458
rfemur 18.2836 2.99307 19.2714
rtibia -6.52014e-014
rfoot -22.0936 -13.0756
rtoes -5.3694
lfemur 3.81986 -4.67485 -10.8679
ltibia 23.1026
lfoot -21.4774 7.17838
ltoes -56.3566
615
root -0.888091 18.501 6.06344 -7.50411 0.372476 -3.24939
lowerback 6.51441 0.0647498 0.858855
upperback -0.966649 0.189078 0.711433
thorax -4.65686 0.0806325 0.234658
lowerneck -10.3142 -1.79826 1.05055
upperneck 20.1114 -2.8932 0.925434
head 7.90758 -1.21142 -0.153799
rclavicle -2.88238e-015 -5.36719e-015
rhumerus -53.496 -10.3631 -82.1013
rradius 41.8589
rwrist 22.5611
rhand -6.61956 -31.6827
rfingers 7.12502
rthumb 19.2367 -60.7513
lclavicle -2.88238e-015 -5.36719e-015
lhumerus -46.3842 12.9773 81.5037
lradius 36.8962
lwrist -18.9153
lhand -6.57988 -19.4125
lfingers 7.12502
lthumb 19.2748 9.65224
rfemur 18.2662 3.17983 19.3162
rtibia -4.29375e-014
rfoot -22.1303 -13.0167
rtoes -4.98347
lfemur 3.88236 -4.61379 -10.8584
ltibia 23.0822
lfoot -21.4957 7.25298
ltoes -56.3287
616
root -0.882552 18.498 6.06891 -7.62638 0.00142311 -3.27193
lowerback 6.47583 0.133175 0.987543
upperback -0.892625 0.288906 0.702234
thorax -4.55714 0.127037 0.142533
lowerneck -10.1583 -1.73885 1.09299
upperneck 20.0886 -2.81374 0.916138
head 7.87107 -1.17255 -0.154343
rclavicle -1.35174e-014 -2.5842e-015
rhumerus -53.4436 -10.3881 -82.0325
rradius 41.8874
rwrist 22.3549
rhand -6.63394 -31.1386
rfingers 7.12502
rthumb 19.2229 -60.2085
lclavicle -1.35174e-014 -2.5842e-015
lhumerus -46.0362 13.2194 81.4642
lradius 36.2616
lwrist -19.0004
lhand -6.94553 -19.8843
lfingers 7.12502
lthumb 18.9232 9.21522
rfemur 18.3601 3.54832 19.3861
rtibia -3.02153e-014
rfoot -22.1456 -12.9967
rtoes -4.65327
lfemur 4.15311 -4.7414 -10.9425
ltibia 23.069
lfoot -21.7259 7.63728
ltoes -56.2801
617
root -0.866409 18.4907 6.08983 -7.9486 -0.728769 -3.26771
lowerback 6.3745 0.305934 1.25508
upperback -0.684327 0.535231 0.682519
thorax -4.27968 0.244026 -0.052325
lowerneck -9.98669 -1.68423 1.11642
upperneck 20.0133 -2.73412 0.898327
head 7.81446 -1.13653 -0.154147
rclavicle 4.79568e-015 4.57205e-015
rhumerus -53.3321 -10.2697 -82.0473
rradius 41.9557
rwrist 22.4946
rhand -7.38952 -30.8151
rfingers 7.12502
rthumb 18.4962 -59.9558
lclavicle 4.79568e-015 4.57205e-015
lhumerus -45.6232 14.3186 81.0085
lradius 34.9468
lwrist -19.9942
lhand -7.49361 -21.0339
lfingers 7.12502
lthumb 18.396 8.11623
rfemur 18.6666 4.28411 19.4625
rtibia -5.08889e-014
rfoot -22.0923 -13.0455
rtoes -4.8938
lfemur 4.82227 -5.06578 -11.2293
ltibia 23.0494
lfoot -22.2663 8.46933
ltoes -56.1359
618
root -0.878817 18.499 6.06062 -7.62082 -0.344436 -3.28181
lowerback 6.46328 0.136219 1.04482
upperback -0.831522 0.296738 0.705276
thorax -4.48619 0.129879 0.112745
lowerneck -9.94313 -1.62722 1.01907
upperneck 20.0296 -2.67023 1.05737
head 7.81588 -1.09837 -0.0791533
rclavicle -1.74682e-014 -1.03368e-014
rhumerus -53.1259 -10.1403 -82.1183
rradius 41.973
rwrist 22.8873
rhand -8.18753 -30.5298
rfingers 7.12502
rthumb 17.7284 -59.7416
lclavicle -1.74682e-014 -1.03368e-014
lhumerus -46.0506 13.1848 81.7894
lradius 36.7316
lwrist -18.6926
lhand -7.11757 -20.2561
lfingers 7.12502
lthumb 18.7577 8.85947
rfemur 18.2768 3.89036 19.447
rtibia 1.59028e-015
rfoot -22.0607 -13.079
rtoes -4.96333
lfemur 4.25116 -4.7729 -10.9887
ltibia 23.0238
lfoot -21.8408 7.90978
ltoes -56.1653
619
root -0.881163 18.5028 6.04785 -7.44497 -0.336245 -3.28571
lowerback 6.44699 0.0718708 1.00905
upperback -0.881104 0.208294 0.703073
thorax -4.52915 0.0866679 0.139656
lowerneck -10.0046 -1.54721 0.886866
upperneck 20.1407 -2.58302 1.26865
head 7.86872 -1.045 0.0196902
rclavicle 2.78299e-015 5.96354e-016
rhumerus -52.8924 -9.80463 -82.2882
rradius 42.0187
rwrist 23.1589
rhand -7.16916 -29.683
rfingers 7.12502
rthumb 18.7081 -58.8034
lclavicle 2.78299e-015 5.96354e-016
lhumerus -45.9445 12.717 82.1967
lradius 36.8395
lwrist -18.1486
lhand -7.26595 -20.2552
lfingers 7.12502
lthumb 18.615 8.87412
rfemur 18.0474 3.87892 19.4497
rtibia 7.15625e-014
rfoot -22.0703 -13.0905
rtoes -4.91707
lfemur 4.02981 -4.58827 -10.8995
ltibia 22.9833
lfoot -21.6932 7.72962
ltoes -56.1532
620
root -0.878604 18.5043 6.04404 -7.378 -0.535838 -3.27138
lowerback 6.42054 0.0789346 1.04104
upperback -0.875811 0.218844 0.682128
thorax -4.50845 0.0908916 0.0989608
lowerneck -10.0445 -1.48079 0.923453
upperneck 20.2158 -2.50114 1.27241
head 7.90036 -1.00188 0.0220682
rclavicle -8.32411e-015 -4.17448e-015
rhumerus -52.691 -9.32461 -82.5163
rradius 42.1641
rwrist 23.1503
rhand -8.5946 -29.9948
rfingers 7.12502
rthumb 17.3366 -59.2415
lclavicle -8.32411e-015 -4.17448e-015
lhumerus -45.7999 12.323 82.5574
lradius 36.8449
lwrist -17.7227
lhand -7.30938 -20.3828
lfingers 7.12502
lthumb 18.5732 8.75051
rfemur 17.9328 4.07991 19.4527
rtibia 1.08139e-013
rfoot -22.0894 -13.1042
rtoes -4.83065
lfemur 4.015 -4.47241 -10.909
ltibia 22.9425
lfoot -21.6939 7.79014
ltoes -56.1749
621
root -0.873996 18.5058 6.04196 -7.3485 -0.702894 -3.17513
lowerback 6.41783 0.0910376 1.01641
upperback -0.861636 0.230385 0.627834
thorax -4.49193 0.0966206 0.0554141
lowerneck -10.0838 -1.44278 1.04241
upperneck 20.3071 -2.45293 1.17458
head 7.93495 -0.978136 -0.026114
rclavicle 4.84538e-015 1.59028e-015
rhumerus -52.4818 -8.93249 -82.7164
rradius 42.2836
rwrist 23.1167
rhand -8.38337 -30.0658
rfingers 7.12502
rthumb 17.5399 -59.2946
lclavicle 4.84538e-015 1.59028e-015
lhumerus -45.615 12.319 82.7047
lradius 36.7216
lwrist -17.7493
lhand -7.28214 -20.5761
lfingers 7.12502
lthumb 18.5994 8.55475
rfemur 17.8705 4.26236 19.356
rtibia 0
rfoot -22.076 -13.1469
rtoes -4.97214
lfemur 4.04738 -4.43505 -11.0454
ltibia 22.8866
lfoot -21.7203 7.92207
ltoes -56.1825
622
root -0.868132 18.5074 6.04088 -7.31714 -0.838118 -3.08995
lowerback 6.39695 0.0889081 1.00897
upperback -0.837033 0.224571 0.587759
thorax -4.45442 0.0936065 0.0187409
lowerneck -10.179 -1.40399 1.11997
upperneck 20.4586 -2.39937 1.08209
head 8.0004 -0.953473 -0.0658811
rclavicle -2.31087e-015 -7.15625e-015
rhumerus -52.2057 -8.63281 -82.8472
rradius 42.3029
rwrist 23.1308
rhand -7.41036 -29.7591
rfingers 7.12502
rthumb 18.4761 -58.9017
lclavicle -2.31087e-015 -7.15625e-015
lhumerus -45.4052 12.2438 82.9258
lradius 36.6275
lwrist -17.7727
lhand -7.30369 -20.7029
lfingers 7.12502
lthumb 18.5787 8.42986
rfemur 17.8147 4.4128 19.2593
rtibia 7.95139e-015
rfoot -22.0094 -13.1871
rtoes -5.33136
lfemur 4.07806 -4.43308 -11.1818
ltibia 22.8291
lfoot -21.7481 8.07904
ltoes -56.1999
623
root -0.862711 18.5095 6.03926 -7.24524 -0.960773 -3.08426
lowerback 6.34721 0.0825897 1.07849
upperback -0.811094 0.220108 0.57742
thorax -4.39912 0.0898228 -0.03045
lowerneck -10.2797 -1.36599 1.17583
upperneck 20.5779 -2.33933 0.977155
head 8.05638 -0.928994 -0.105431
rclavicle -2.5345e-015 -2.38542e-015
rhumerus -51.8662 -8.4428 -82.9061
rradius 42.2835
rwrist 23.031
rhand -7.46257 -29.5907
rfingers 7.12502
rthumb 18.4259 -58.738
lclavicle -2.5345e-015 -2.38542e-015
lhumerus -45.1633 11.9154 83.3083
lradius 36.6132
lwrist -17.5685
lhand -7.3013 -20.8874
lfingers 7.12502
lthumb 18.581 8.24513
rfemur 17.7094 4.53808 19.2478
rtibia 4.13472e-014
rfoot -21.9647 -13.2117
rtoes -5.65247
lfemur 4.0671 -4.47343 -11.2275
ltibia 22.7672
lfoot -21.7702 8.22453
ltoes -56.1576
624
root -0.856954 18.5121 6.03819 -7.14855 -1.10393 -3.10818
lowerback 6.28359 0.100993 1.19727
upperback -0.809668 0.252511 0.569191
thorax -4.36096 0.10305 -0.108755
lowerneck -10.2969 -1.33999 1.21259
upperneck 20.6287 -2.29368 0.89372
head 8.07492 -0.91199 -0.135071
rclavicle -4.42296e-015 -1.39149e-015
rhumerus -51.5499 -8.37046 -82.9096
rradius 42.2567
rwrist 22.9186
rhand -8.23549 -29.6672
rfingers 7.12502
rthumb 17.6822 -58.8832
lclavicle -4.42296e-015 -1.39149e-015
lhumerus -44.9537 11.5571 83.6977
lradius 36.6678
lwrist -17.3437
lhand -7.2297 -21.0241
lfingers 7.12502
lthumb 18.6499 8.10187
rfemur 17.5732 4.67892 19.2705
rtibia -3.18055e-014
rfoot -21.9391 -13.251
rtoes -5.69384
lfemur 4.03801 -4.56989 -11.2518
ltibia 22.7082
lfoot -21.8521 8.37856
ltoes -55.9969
625
root -0.851047 18.515 6.03814 -7.05423 -1.26437 -3.10296
lowerback 6.23906 0.12689 1.27327
upperback -0.831651 0.292465 0.569977
thorax -4.35792 0.120958 -0.154459
lowerneck -10.2785 -1.30138 1.18803
upperneck 20.6784 -2.22951 0.863397
head 8.08805 -0.88593 -0.134723
rclavicle 6.21202e-015 4.37326e-015
rhumerus -51.3044 -8.27307 -82.9018
rradius 42.2831
rwrist 22.8433
rhand -8.68595 -29.624
rfingers 7.12502
rthumb 17.2487 -58.8785
lclavicle 6.21202e-015 4.37326e-015
lhumerus -44.7947 11.2149 84.1147
lradius 36.767
lwrist -17.0913
lhand -7.23227 -20.99
lfingers 7.12502
lthumb 18.6474 8.13621
rfemur 17.4516 4.84102 19.2622
rtibia 6.36111e-014
rfoot -21.9138 -13.3064
rtoes -5.7539
lfemur 4.01658 -4.64745 -11.3081
ltibia 22.6509
lfoot -21.9604 8.54665
ltoes -55.8797
626
root -0.844798 18.518 6.03835 -6.97154 -1.38028 -3.04198
lowerback 6.21744 0.127178 1.26711
upperback -0.845017 0.292094 0.56878
thorax -4.35962 0.120857 -0.152145
lowerneck -10.3581 -1.24379 1.10156
upperneck 20.8116 -2.14687 0.90837
head 8.14868 -0.847173 -0.0983394
rclavicle -1.09083e-014 8.74653e-015
rhumerus -51.0499 -8.16016 -82.8839
rradius 42.3434
rwrist 22.7883
rhand -8.22861 -29.5698
rfingers 7.12502
rthumb 17.6889 -58.7852
lclavicle -1.09083e-014 8.74653e-015
lhumerus -44.6166 11.097 84.4504
lradius 36.8323
lwrist -17.0144
lhand -7.25569 -21.1093
lfingers 7.12502
lthumb 18.6249 8.01909
rfemur 17.3537 4.96746 19.1832
rtibia -3.02153e-014
rfoot -21.8927 -13.347
rtoes -6.0834
lfemur 4.00825 -4.73393 -11.4298
ltibia 22.5805
lfoot -22.0335 8.7063
ltoes -55.8184
627
root -0.838151 18.5207 6.03893 -6.8916 -1.4496 -2.93521
lowerback 6.16509 0.126007 1.22173
upperback -0.832405 0.284602 0.537272
thorax -4.31704 0.11812 -0.158353
lowerneck -10.472 -1.19761 1.10611
upperneck 20.9351 -2.08895 0.912424
head 8.21097 -0.817064 -0.0933227
rclavicle -1.01132e-014 7.15625e-015
rhumerus -50.716 -8.17712 -82.8357
rradius 42.3273
rwrist 22.8196
rhand -7.11304 -29.3393
rfingers 7.12502
rthumb 18.7621 -58.4544
lclavicle -1.01132e-014 7.15625e-015
lhumerus -44.3728 11.229 84.6326
lradius 36.8606
lwrist -17.1971
lhand -7.11524 -21.357
lfingers 7.12502
lthumb 18.76 7.75834
rfemur 17.2573 5.05451 19.0447
rtibia 8.26944e-014
rfoot -21.8663 -13.3683
rtoes -6.30249
lfemur 3.99455 -4.81151 -11.6017
ltibia 22.5006
lfoot -22.0908 8.84415
ltoes -55.7563
